# Blender 4.4.3
# www.blender.org
mtllib beach.mtl
o Cube
v 13.432699 -1.000000 -9.254163
v 13.432699 -1.000000 9.254163
v -5.072145 1.000000 -9.254163
v -5.072145 -1.000000 -9.254163
v -5.072145 1.000000 9.254163
v -5.072145 -1.000000 9.254163
v 4.239871 1.000000 -9.254163
v 9.502562 0.510586 -9.254163
v 6.122370 0.934431 -9.254163
v 8.048648 0.755293 -9.254163
v 9.502562 0.510586 9.254163
v 4.239871 1.000000 9.254163
v 8.048648 0.755293 9.254163
v 6.122370 0.934431 9.254163
vn -0.0000 -0.0000 1.0000
vn -1.0000 -0.0000 -0.0000
vn -0.0000 -1.0000 -0.0000
vn 0.0173 0.9999 -0.0000
vn -0.0000 1.0000 -0.0000
vn 0.3588 0.9334 -0.0000
vn 0.2419 0.9703 -0.0000
vn 0.0626 0.9980 -0.0000
vn 0.1264 0.9920 -0.0000
vn -0.0000 -0.0000 -1.0000
vt 0.375000 0.750000
vt 0.563823 0.750000
vt 0.594412 0.757373
vt 0.616804 0.786301
vt 0.625000 0.829276
vt 0.625000 1.000000
vt 0.375000 1.000000
vt 0.375000 0.000000
vt 0.625000 0.000000
vt 0.625000 0.250000
vt 0.375000 0.250000
vt 0.125000 0.500000
vt 0.375000 0.500000
vt 0.125000 0.750000
vt 0.704276 0.500000
vt 0.875000 0.500000
vt 0.875000 0.750000
vt 0.704276 0.750000
vt 0.563823 0.500000
vt 0.657883 0.750000
vt 0.657883 0.500000
vt 0.599624 0.750000
vt 0.599624 0.500000
vt 0.625000 0.420724
vt 0.616804 0.463699
vt 0.594412 0.492627
s 1
usemtl Material
f 2/1/1 11/2/1 13/3/1 14/4/1 12/5/1 5/6/1 6/7/1
f 6/8/2 5/9/2 3/10/2 4/11/2
f 4/12/3 1/13/3 2/1/3 6/14/3
f 7/15/4 3/16/5 5/17/5 12/18/4
f 1/13/6 8/19/7 11/2/7 2/1/6
f 7/15/4 12/18/4 14/20/8 9/21/8
f 9/21/8 14/20/8 13/22/9 10/23/9
f 10/23/9 13/22/9 11/2/7 8/19/7
f 4/11/10 3/10/10 7/24/10 9/25/10 10/26/10 8/19/10 1/13/10
